<?xml version="1.0" encoding="utf-8"?>
<svg width="1024" height="1024" viewBox="0 0 1024 1024" fill="none" xmlns="http://www.w3.org/2000/svg">
  <g>
    <g>
      <rect width="1024" height="1024" fill="#FFFFFF" fill-rule="evenodd" />
      <g transform="translate(0 212)">
        <path d="M21.4066 468.202C2.71515 457.751 -5.35953 431.276 3.7619 409.329C3.7619 409.329 94.9759 188.291 94.9759 188.291C103.948 166.518 126.676 157.113 145.517 167.738C171.237 182.195 186.04 190.381 186.04 190.381C186.04 190.381 185.891 0.174192 185.891 0.174192C185.891 0.174192 210.862 0 210.862 0C210.862 0 211.012 203.968 211.012 203.968C211.012 203.968 296.843 246.12 335.272 273.815C340.805 277.821 350.525 285.659 354.562 298.897C357.702 309.522 357.552 321.715 353.067 332.514C353.067 332.514 261.853 553.552 261.853 553.552C252.582 575.673 229.853 585.078 211.161 574.453C211.161 574.453 211.161 574.453 211.161 574.453C211.161 574.453 21.4066 468.202 21.4066 468.202Z" fill="#FFFFFF" transform="translate(372.356 19.726)" />
        <g>
          <g>
            <path d="M922.655 11.7137C916.524 4.57225 908.3 4.74644 908.3 4.74644C908.3 4.74644 733.049 16.2425 642.284 18.681C622.396 19.2036 602.658 19.7261 583.069 19.9003C583.069 88.0056 583.069 156.111 583.069 224.042C574.845 219.513 566.471 214.81 558.247 210.282C558.247 146.879 558.098 20.0745 558.098 20.0745C514.734 20.7712 424.716 16.2425 424.716 16.2425C424.716 16.2425 213.279 3.87555 190.251 1.43701C175.597 0.391909 156.606 -2.22083 131.934 4.04975C118.925 7.18503 81.8409 16.9392 51.4861 50.9048C-15.8029 120.752 1.39314 231.88 3.48658 248.602C6.0286 268.981 13.8042 325.59 50.888 374.884C119.373 472.6 266.811 470.336 266.811 470.336C266.811 470.336 284.904 520.674 312.567 567.007C349.95 624.661 388.38 669.6 425.763 675C519.967 675 708.227 674.826 708.227 674.826C708.227 674.826 726.171 675 750.544 656.885C771.478 642.08 790.17 616.126 790.17 616.126C790.17 616.126 809.459 592.089 836.375 537.222C844.599 520.326 851.478 503.953 857.459 488.451C857.459 488.451 940 284.483 940 85.9154C938.355 25.8225 925.645 15.1974 922.655 11.7137C922.655 11.7137 922.655 11.7137 922.655 11.7137ZM179.335 367.22C140.607 352.414 124.158 334.647 124.158 334.647C124.158 334.647 95.5979 311.307 81.2429 265.323C56.5702 188.334 79.1494 141.305 79.1494 141.305C79.1494 141.305 91.7101 102.114 136.719 89.0505C157.354 82.6058 183.074 83.6508 183.074 83.6508C183.074 83.6508 193.69 187.115 206.55 247.731C217.316 298.592 243.634 383.07 243.634 383.07C243.634 383.07 204.606 377.671 179.335 367.22C179.335 367.22 179.335 367.22 179.335 367.22ZM599.069 581.464C590.396 582.161 583.667 579.374 583.667 579.374C583.667 579.374 583.219 579.199 575.742 575.716C575.742 575.716 406.921 479.916 406.921 479.916C406.921 479.916 390.623 469.987 387.781 452.743C384.492 438.634 391.819 421.216 391.819 421.216C391.819 421.216 473.014 226.306 473.014 226.306C473.014 226.306 480.192 209.41 491.257 203.662C492.154 203.14 494.696 201.921 497.986 201.05C510.098 197.392 524.901 205.927 524.901 205.927C524.901 205.927 690.432 299.463 690.432 299.463C690.432 299.463 709.273 309.391 713.311 327.68C716.152 340.57 712.563 352.066 710.619 357.64C701.199 384.464 628.377 554.64 628.377 554.64C628.377 554.64 628.377 554.64 628.377 554.64C628.377 554.64 619.256 579.896 599.069 581.464Z" fill="#609926" />
            <path d="M26.585 190.033C14.3234 190.207 3.55722 200.136 0.716125 214.07C-2.12497 228.005 3.70676 242.462 14.3235 248.907C25.8374 255.874 40.4914 252.042 48.2671 239.501C55.8932 227.134 54.6969 210.064 45.5755 199.265C45.5755 199.265 81.463 113.741 81.463 113.741C83.7059 113.915 86.9957 114.089 90.7339 112.87C96.8647 111.303 101.351 106.6 101.351 106.6C107.631 109.735 114.21 113.218 121.089 117.225C128.266 121.405 134.995 125.76 141.126 129.94C142.472 130.811 143.818 131.856 145.313 133.249C147.705 135.514 150.397 138.649 152.341 142.829C155.182 152.41 149.5 168.783 149.5 168.783C146.06 182.021 121.986 239.501 121.986 239.501C109.874 239.152 99.1077 248.21 95.5189 261.273C91.6311 275.382 97.1638 291.407 108.827 298.374C120.491 305.341 134.846 301.335 142.472 289.143C149.948 277.298 149.35 260.751 140.827 249.777C143.668 243.333 146.359 236.888 149.201 230.095C156.677 211.98 169.387 177.143 169.387 177.143C170.733 174.182 177.911 159.203 173.425 140.043C169.686 120.186 154.584 110.954 154.584 110.954C136.341 97.1937 110.921 84.4784 110.921 84.4784C110.921 84.4784 110.921 77.3369 109.276 72.1115C107.631 66.7118 105.089 63.2282 103.444 61.138C110.472 44.2423 117.5 27.5208 124.528 10.6251C118.397 7.14148 112.416 3.65784 106.285 0C99.1077 17.0698 91.7806 34.3139 84.6031 51.3838C74.5845 51.2096 65.3137 57.4801 60.5286 67.7569C55.4446 78.7304 56.4913 92.3166 63.3697 102.245C51.1082 131.508 38.8466 160.77 26.585 190.033C26.585 190.033 26.585 190.033 26.585 190.033Z" fill="#609926" transform="translate(453.607 222.822)" />
          </g>
        </g>
      </g>
    </g>
  </g>
</svg>