<?xml version="1.0" encoding="utf-8"?>
<svg width="1024" height="1024" viewBox="0 0 1024 1024" fill="none" xmlns="http://www.w3.org/2000/svg">
  <defs>
    <clipPath id="clip_path_1">
      <rect width="740" height="555" />
    </clipPath>
  </defs>
  <g>
    <rect width="1024" height="1024" fill="#FFFFFF" fill-rule="evenodd" />
    <g clip-path="url(#clip_path_1)" transform="translate(142 235)">
      <path d="M50.4547 412.046L168.182 412.046L168.182 126.137L0 0C0 0 0 361.591 0 361.591C0 389.51 22.6205 412.046 50.4547 412.046C50.4547 412.046 50.4547 412.046 50.4547 412.046Z" fill="#4285F4" transform="translate(0 142.955)" />
      <path d="M0 412.046C0 412.046 117.727 412.046 117.727 412.046C145.645 412.046 168.181 389.425 168.181 361.591C168.181 361.591 168.181 0 168.181 0L0 126.137L0 412.046Z" fill="#34A853" transform="translate(571.819 142.955)" />
      <path d="M0 50.5977L0 269.234L168.181 143.098C168.181 143.098 168.181 75.8249 168.181 75.8249C168.181 13.4295 96.9564 -22.141 47.0907 15.2795C47.0907 15.2795 0 50.5977 0 50.5977Z" fill="#FBBC04" transform="translate(571.819 -0.143)" />
      <path d="M0 218.637L0 0L201.818 151.364L403.637 0L403.637 218.637L201.818 370.001L0 218.637Z" fill="#EA4335" transform="translate(168.182 50.455)" />
      <path d="M0 75.8249L0 143.098L168.182 269.234L168.182 50.5977C168.182 50.5977 121.091 15.2795 121.091 15.2795C71.1411 -22.141 0 13.4295 0 75.8249C0 75.8249 0 75.8249 0 75.8249Z" fill="#C5221F" transform="translate(0 -0.143)" />
    </g>
  </g>
</svg>