<?xml version="1.0" encoding="utf-8"?>
<svg width="1202" height="455.5" viewBox="0 0 1202 455.5" fill="none" xmlns="http://www.w3.org/2000/svg">
  <defs>
    <clipPath id="clip_path_1">
      <rect width="975" height="277" />
    </clipPath>
  </defs>
  <g>
    <path d="M1192 0C1197.52 0 1202 4.47641 1202 10L1202 442C1202 447.524 1197.52 452 1192 452L10 452C4.47638 452 0 447.524 0 442L0 10C0 4.47641 4.47638 0 10 0L1192 0Z" fill="#FFFFFF" fill-opacity="0" />
    <path d="M0 446.5L743.101 0L1078.19 0C1093.75 1.51645 1109.74 2.82343 1126.17 3.90833L383.751 450L2.10303 450L0 446.5L0 446.5Z" fill="#F7E62E" fill-rule="evenodd" transform="translate(30.264 5.5)" />
    <path d="M14.5435 222.812L14.5435 55.5347L49.9194 55.5347L49.9194 124.546L121.682 124.546L121.682 55.5347L157.002 55.5347L157.002 222.812L121.682 222.812L121.682 153.689L49.9194 153.689L49.9194 222.812L14.5435 222.812ZM185.471 222.812L185.471 97.3681L220.286 97.3681L220.286 222.812L185.471 222.812ZM202.991 81.1963Q195.298 81.1963 189.739 76.0303Q184.18 70.8081 184.18 63.5644Q184.18 56.2646 189.739 51.1548Q195.298 45.9888 202.991 45.9888Q210.74 45.9888 216.299 51.1548Q221.858 56.2646 221.858 63.5644Q221.858 70.8081 216.299 76.0303Q210.74 81.1963 202.991 81.1963ZM248.035 222.812L248.035 97.3681L281.783 97.3681L281.783 119.268L283.074 119.268Q286.499 107.588 294.585 101.58Q302.671 95.5713 313.228 95.5713Q319.012 95.5713 324.178 96.8066L324.178 127.634Q321.707 126.848 317.383 126.343Q313.06 125.781 309.466 125.781Q297.955 125.781 290.374 133.025Q282.85 140.212 282.85 151.836L282.85 222.812L248.035 222.812ZM393.327 225.283Q374.066 225.283 360.085 217.422Q346.159 209.504 338.634 195.017Q331.11 180.53 331.11 160.652Q331.11 141.279 338.634 126.68Q346.159 112.08 359.804 103.938Q373.505 95.7397 391.979 95.7397Q408.544 95.7397 421.908 102.759Q435.273 109.778 443.078 123.984Q450.939 138.135 450.939 159.416L450.939 168.962L365.475 168.962L365.475 169.075Q365.475 183.113 373.168 191.199Q380.861 199.285 393.944 199.285Q402.648 199.285 408.993 195.635Q415.395 191.929 418.034 184.741L450.209 186.875Q446.503 204.338 431.566 214.839Q416.63 225.283 393.327 225.283ZM365.475 147.4L418.202 147.4Q418.09 136.226 410.959 128.982Q403.883 121.682 392.541 121.682Q380.917 121.682 373.505 129.207Q366.093 136.731 365.475 147.4ZM527.633 55.5347L571.263 55.5347L617.308 167.952L619.274 167.952L665.318 55.5347L708.949 55.5347L708.949 222.812L674.64 222.812L674.64 113.933L673.236 113.933L629.943 221.97L606.583 221.97L563.346 113.54L561.942 113.54L561.942 222.812L527.633 222.812L527.633 55.5347ZM794.52 225.283Q775.26 225.283 761.278 217.422Q747.352 209.504 739.828 195.017Q732.303 180.53 732.303 160.652Q732.303 141.279 739.828 126.68Q747.352 112.08 760.997 103.938Q774.698 95.7397 793.172 95.7397Q809.737 95.7397 823.101 102.759Q836.466 109.778 844.271 123.984Q852.132 138.135 852.132 159.416L852.132 168.962L766.668 168.962L766.668 169.075Q766.668 183.113 774.361 191.199Q782.054 199.285 795.138 199.285Q803.841 199.285 810.186 195.635Q816.588 191.929 819.227 184.741L851.402 186.875Q847.696 204.338 832.76 214.839Q817.823 225.283 794.52 225.283ZM766.668 147.4L819.395 147.4Q819.283 136.226 812.152 128.982Q805.077 121.682 793.734 121.682Q782.11 121.682 774.698 129.207Q767.286 136.731 766.668 147.4ZM916.427 55.5347L913.226 172.668L883.353 172.668L880.04 55.5347L916.427 55.5347ZM898.289 224.946Q890.203 224.946 884.364 219.219Q878.58 213.491 878.692 205.349Q878.58 197.319 884.364 191.648Q890.203 185.92 898.289 185.92Q906.095 185.92 911.934 191.648Q917.774 197.319 917.887 205.349Q917.774 213.491 911.934 219.219Q906.095 224.946 898.289 224.946Z" fill="#000000" clip-path="url(#clip_path_1)" transform="translate(126 88)" />
  </g>
</svg>