<?xml version="1.0" encoding="utf-8"?>
<svg width="1024" height="1024" viewBox="0 0 1024 1024" fill="none" xmlns="http://www.w3.org/2000/svg">
  <g>
    <rect width="1024" height="1024" fill="#FFFFFF" fill-rule="evenodd" transform="scale(1 1)" />
    <g transform="matrix(1 0 0 1 105.494 210.987)">
      <g>
        <g>
          <g>
            <path d="M794.044 94.0096C784.7 56.9863 757.259 27.8914 722.344 17.9807C659.125 6.75104e-06 405.5 0 405.5 0C405.5 0 151.88 6.75104e-06 88.6572 17.9807C53.7421 27.8914 26.3035 56.9863 16.9571 94.0096C6.36673e-06 161.047 0 301 0 301C0 301 6.36673e-06 440.953 16.9571 507.992C26.3035 545.015 53.7421 574.109 88.6572 584.018C151.88 602 405.5 602 405.5 602C405.5 602 659.125 602 722.344 584.018C757.259 574.109 784.7 545.015 794.044 507.992C811 440.953 811 301 811 301C811 301 810.937 161.047 794.044 94.0096Z" fill="#FF0000" />
            <path d="M210.695 128.981C210.695 128.981 0 0 0 0C0 0 0 257.96 0 257.96C0 257.96 210.695 128.981 210.695 128.981Z" fill="#FFFFFF" transform="translate(324.323 172.032)" />
          </g>
        </g>
      </g>
    </g>
  </g>
</svg>